# xmcd
#
# Track frame offsets:
#	150
#	12093
#	48129
#	68045
#	111738
#	151637
#	176765
#	196139
#
# Disc length: 3075
#
# Revision: 2
# Processed by: cddbd v1.5.1PL0 Copyright (c) Steve Scherf et al.
# Submitted via: CDex 1.50beta10
# Normalized: r1:TDELIM( - )
#
DISCID=5e0c0108
DTITLE=Various Artist - Jazz For A Lazy Day [CD1]
DYEAR=2003
DGENRE=Jazz
TTITLE0=Hank Jones - Blue Monk
TTITLE1=Ralph Moore - Monk's Dream
TTITLE2=Ricky Ford - Chelsea Bridge
TTITLE3=Sonny Stitt - Walkin'
TTITLE4=Wallace Roney - Alone Together
TTITLE5=Russell Gunn - Fly Me To The Moon
TTITLE6=Houston Person - Daydream
TTITLE7=Donald Byrd - Alter Ego
EXTD=YEAR: 2003
EXTT0=
EXTT1=
EXTT2=
EXTT3=
EXTT4=
EXTT5=
EXTT6=
EXTT7=
PLAYORDER=
